<svg height="606" width="720" xmlns="http://www.w3.org/2000/svg">
<rect height="606" fill="#555" width="720"></rect>
<text fill="#7f7" font-family="Courier New" font-size="12" xml:space="preserve">
<tspan x="10" y="26">20 megabytes installed</tspan>
<tspan x="10" y="42"></tspan>
<tspan x="10" y="58">node_modules</tspan>
<tspan x="10" y="74">└─┬ react-chrome-extension-boilerplate@0.9.0 </tspan>
<tspan x="10" y="90">  ├── bluebird@3.5.0 </tspan>
<tspan x="10" y="106">  ├── classnames@2.2.5 </tspan>
<tspan x="10" y="122">  ├─┬ react@15.5.4 </tspan>
<tspan x="10" y="138">  │ ├─┬ fbjs@0.8.12 </tspan>
<tspan x="10" y="154">  │ │ ├── core-js@1.2.7 </tspan>
<tspan x="10" y="170">  │ │ ├─┬ isomorphic-fetch@2.2.1 </tspan>
<tspan x="10" y="186">  │ │ │ ├─┬ node-fetch@1.6.3 </tspan>
<tspan x="10" y="202">  │ │ │ │ ├─┬ encoding@0.1.12 </tspan>
<tspan x="10" y="218">  │ │ │ │ │ └── iconv-lite@0.4.15 </tspan>
<tspan x="10" y="234">  │ │ │ │ └── is-stream@1.1.0 </tspan>
<tspan x="10" y="250">  │ │ │ └── whatwg-fetch@2.0.3 </tspan>
<tspan x="10" y="266">  │ │ ├─┬ promise@7.1.1 </tspan>
<tspan x="10" y="282">  │ │ │ └── asap@2.0.5 </tspan>
<tspan x="10" y="298">  │ │ ├── setimmediate@1.0.5 </tspan>
<tspan x="10" y="314">  │ │ └── ua-parser-js@0.7.12 </tspan>
<tspan x="10" y="330">  │ ├─┬ loose-envify@1.3.1 </tspan>
<tspan x="10" y="346">  │ │ └── js-tokens@3.0.1 </tspan>
<tspan x="10" y="362">  │ ├── object-assign@4.1.1 </tspan>
<tspan x="10" y="378">  │ └── prop-types@15.5.8 </tspan>
<tspan x="10" y="394">  ├─┬ react-dock@0.2.3 </tspan>
<tspan x="10" y="410">  │ └─┬ lodash.debounce@3.1.1 </tspan>
<tspan x="10" y="426">  │   └── lodash._getnative@3.9.1 </tspan>
<tspan x="10" y="442">  ├── react-dom@15.5.4 </tspan>
<tspan x="10" y="458">  ├─┬ react-redux@4.4.8 </tspan>
<tspan x="10" y="474">  │ ├── create-react-class@15.5.2 </tspan>
<tspan x="10" y="490">  │ ├── hoist-non-react-statics@1.2.0 </tspan>
<tspan x="10" y="506">  │ ├── invariant@2.2.2 </tspan>
<tspan x="10" y="522">  │ └── lodash@4.17.4 </tspan>
<tspan x="10" y="538">  ├─┬ redux@3.6.0 </tspan>
<tspan x="10" y="554">  │ ├── lodash-es@4.17.4 </tspan>
<tspan x="10" y="570">  │ └── symbol-observable@1.0.4 </tspan>
<tspan x="10" y="586">  └── redux-thunk@2.2.0</tspan>
</text>
</svg>
